<svg width="163" height="94" viewBox="0 0 163 94" fill="none" xmlns="http://www.w3.org/2000/svg">
<g clip-path="url(#clip0_16_98)">
<path fill-rule="evenodd" clip-rule="evenodd" d="M49.2463 86.1814C41.3307 62.0297 41.9984 50.8444 53.8514 32.6021C40.5254 48.3831 35.2025 61.4168 49.2463 86.1814Z" fill="white"/>
<path fill-rule="evenodd" clip-rule="evenodd" d="M36.0924 94.0001C42.599 67.6529 41.0009 55.7968 26.9211 37.3042C42.3738 53.0493 49.0728 66.5098 36.0924 94.0001Z" fill="white"/>
<path fill-rule="evenodd" clip-rule="evenodd" d="M40.8789 44.9116C42.4645 45.1102 43.5653 46.7818 43.3339 48.6505C43.1009 50.5176 41.6294 51.8764 40.0376 51.6778C38.4473 51.4824 37.3527 49.8108 37.5841 47.9359C37.8171 46.0656 39.2917 44.713 40.8789 44.9101V44.9116Z" fill="white"/>
<path fill-rule="evenodd" clip-rule="evenodd" d="M50.6788 35.2807C46.0392 17.792 65.4763 13.9969 77.7624 19.4168C70.7773 29.656 70.5693 44.796 51.6107 37.5606C55.0306 30.1345 59.8453 25.9938 65.2949 23.3448C59.9297 24.9273 54.9915 28.5849 50.6788 35.2807Z" fill="#A6CE39"/>
<path fill-rule="evenodd" clip-rule="evenodd" d="M40.9882 34.1814C58.9835 25.3698 48.0562 6.35027 34.6051 0C31.1071 13.2807 18.5895 24.4457 38.4018 35.0571C42.1344 26.8022 42.1063 19.7701 40.369 13.2869C42.9351 18.9226 43.4573 25.7123 40.9867 34.1814H40.9882Z" fill="#A6CE39"/>
<path fill-rule="evenodd" clip-rule="evenodd" d="M28.7537 38.3941C31.3135 20.4879 11.5653 18.9945 0 25.8108C8.13604 35.1587 10.1142 50.1736 28.0954 40.7678C23.828 33.7983 18.5645 30.2455 12.8444 28.2502C18.355 29.1931 23.6841 32.2486 28.7553 38.3941H28.7537Z" fill="#A6CE39"/>
<path fill-rule="evenodd" clip-rule="evenodd" d="M55.7295 58.5474C55.7044 57.2823 55.6716 56.0439 55.6247 54.8273C55.5997 54.0141 55.5574 53.2198 55.4965 52.4285C55.4402 51.6467 55.3854 50.8679 55.337 50.108C55.3135 49.7249 55.2901 49.3449 55.265 48.9618C55.2416 48.5786 55.2181 48.1955 55.1947 47.8187L55.1243 47.5122L55.0852 47.2808V47.0321C55.0852 46.8867 55.1149 46.746 55.1743 46.6052C55.2369 46.4582 55.3119 46.3394 55.4058 46.2456C55.5246 46.1267 55.6763 46.0267 55.853 45.9407C56.0328 45.8546 56.2424 45.7796 56.4785 45.7077C56.6943 45.6607 56.946 45.6107 57.2306 45.5528C57.5184 45.4903 57.8499 45.4434 58.233 45.4231C58.5895 45.3746 58.9836 45.3449 59.412 45.3355C59.8436 45.3214 60.2924 45.3136 60.7693 45.3136C61.0086 45.3136 61.2322 45.3214 61.4339 45.3355C61.6356 45.3449 61.8186 45.3652 61.9875 45.3887C62.1548 45.4152 62.3143 45.4356 62.4691 45.4606C62.6239 45.4794 62.749 45.5216 62.8444 45.5654L63.1478 45.6936L63.3448 45.8922L63.4542 46.1048L63.4918 46.3582V46.4973L63.4542 46.5521V46.7851C63.3604 47.3339 63.2807 47.8937 63.2244 48.4676C63.1618 49.0368 63.1087 49.6217 63.0602 50.219C63.0101 50.8132 62.982 51.4215 62.9695 52.0423C62.957 52.66 62.9539 53.2933 62.9539 53.9375V55.9422C62.9539 56.2049 62.957 56.4848 62.9695 56.7819C62.9836 57.0822 63.0008 57.3871 63.0211 57.6936C63.0211 57.8625 63.0273 58.0267 63.0383 58.1971C63.0539 58.3597 63.0602 58.5411 63.0602 58.7319C63.0602 58.9946 63.0664 59.2542 63.0774 59.5169C63.0868 59.7811 63.0946 60.0298 63.0946 60.2706C63.0946 60.5114 63.1008 60.7335 63.1134 60.9493C63.1243 61.1666 63.129 61.3762 63.129 61.5966V62.1815C63.129 62.3629 63.1415 62.5349 63.1681 62.7006V63.7921C63.154 65.0884 63.0618 66.3785 63.0774 67.6717L63.129 67.8859C63.129 68.0345 63.1415 68.1799 63.1681 68.3347C63.19 68.4895 63.2134 68.6475 63.2385 68.8179V69.0306L63.2713 69.0681V69.1776L63.2385 69.4794L63.129 69.7514L62.9679 69.9297L62.7381 70.0736L62.5019 70.1252L62.1986 70.1408H61.5184L61.1603 70.1783H58.7287C58.4894 70.1518 58.2705 70.1408 58.0672 70.1408H56.8288C56.6427 70.1408 56.4926 70.133 56.3847 70.1252L56.1532 70.0736L55.8671 69.8734L55.6497 69.5685C55.6028 69.4496 55.5731 69.3058 55.5621 69.1385C55.5481 68.9758 55.5434 68.7819 55.5434 68.5677V67.6013C55.5434 67.459 55.5496 67.2964 55.5621 67.1197C55.5731 66.943 55.5903 66.7585 55.6169 66.563L55.6325 66.2628L55.6497 65.9219C55.6497 65.7561 55.6575 65.5872 55.6685 65.4199C55.6794 65.2542 55.6857 65.0853 55.6857 64.9195C55.6857 64.7757 55.6904 64.6303 55.7029 64.4723C55.7138 64.3191 55.7201 64.1674 55.7201 64.0282V63.5998C55.7201 63.4512 55.7326 63.3261 55.7545 63.2026V62.3785C55.7545 61.0931 55.7435 59.8156 55.7201 58.5536L55.7295 58.5474Z" fill="white"/>
<path fill-rule="evenodd" clip-rule="evenodd" d="M91.3917 59.0337C91.9828 59.1604 92.5458 59.2949 93.0712 59.4418C93.62 59.5873 94.111 59.7483 94.5379 59.9219C94.968 60.1049 95.3698 60.2878 95.7545 60.4817C96.0876 60.6944 96.3847 60.9227 96.6474 61.1619C96.9117 61.3981 97.1243 61.6451 97.2901 61.9094C97.4558 62.1737 97.5888 62.4458 97.6841 62.7319C97.7795 63.0196 97.828 63.3246 97.828 63.6608C97.828 64.2362 97.7076 64.7788 97.4683 65.287C97.2291 65.7999 96.8741 66.2956 96.3956 66.7741C95.9203 67.2292 95.3151 67.6561 94.5895 68.0611C93.8624 68.4676 93.007 68.8336 92.0328 69.1713C91.0555 69.5013 89.9984 69.7906 88.8663 70.0314C87.7326 70.2675 86.5239 70.4708 85.2338 70.6397C83.9484 70.8289 82.5895 70.9649 81.1587 71.0509C79.7279 71.1322 78.2002 71.176 76.5786 71.176C75.9812 71.176 75.4246 71.1698 74.8992 71.1588C74.3753 71.1447 73.8984 71.1275 73.4668 71.1025C73.0383 71.0791 72.674 71.0525 72.3769 71.0134C72.0798 70.9774 71.8343 70.9415 71.6435 70.8867C71.4324 70.8414 71.2541 70.7851 71.1243 70.7069L70.749 70.4598L70.5348 70.194L70.4629 69.925V69.7108L70.4816 69.5278L70.5348 69.2776C70.5598 69.0149 70.5817 68.746 70.6052 68.4755C70.6286 68.1971 70.6537 67.9328 70.6771 67.6686C70.6771 67.4059 70.6881 67.14 70.7146 66.8633C70.7365 66.5927 70.7631 66.3207 70.785 66.0579C70.8335 65.5138 70.8648 64.9633 70.8741 64.4145C70.8882 63.8656 70.8929 63.3199 70.8929 62.7694V62.0892L70.7834 50.3191V49.925L70.749 49.7155V49.5013L70.6943 49.2855L70.6771 49.0353L70.6255 48.8038L70.5692 48.5724C70.5239 48.4285 70.4879 48.2956 70.4644 48.1752L70.4269 47.8891L70.3722 47.728L70.355 47.6389C70.355 47.4481 70.4035 47.2808 70.4988 47.14C70.5942 46.9962 70.749 46.8633 70.9648 46.7476C71.1791 46.6271 71.4339 46.5114 71.7342 46.4098C72.0297 46.3035 72.3909 46.1971 72.8241 46.1033C73.2291 46.0314 73.7092 45.9657 74.2721 45.9078C74.8335 45.8484 75.4558 45.8062 76.1501 45.7812C76.8429 45.7358 77.6122 45.6983 78.4597 45.6764C79.3057 45.6514 80.2017 45.6357 81.1572 45.6357C82.3487 45.6357 83.4996 45.6795 84.6083 45.764C85.717 45.85 86.76 45.986 87.7373 46.1752C88.7381 46.3425 89.681 46.5677 90.563 46.8398C91.4449 47.1119 92.2815 47.4153 93.0665 47.7515C93.828 48.0845 94.4957 48.4489 95.0696 48.8398C95.6419 49.2339 96.1173 49.6483 96.4988 50.0767C96.8804 50.5333 97.1728 50.9962 97.3776 51.4716C97.5778 51.9454 97.681 52.4489 97.681 52.9759C97.681 53.2823 97.6325 53.592 97.5372 53.9031C97.4418 54.2128 97.3104 54.5099 97.1447 54.7976C96.9758 55.0806 96.7694 55.3496 96.5176 55.5998C96.2705 55.8531 95.9766 56.0955 95.6435 56.3332C95.2854 56.5755 94.8913 56.7992 94.4644 57.0134C94.0344 57.2292 93.57 57.4309 93.068 57.6248C92.5426 57.8422 91.9797 58.0329 91.3886 58.2143C90.7897 58.3926 90.147 58.5615 89.4558 58.7319V58.6991C90.1454 58.7882 90.7897 58.9055 91.3886 59.0384L91.3917 59.0337ZM78.1908 66.6287L78.2127 66.9164C78.2408 67.4012 78.5473 67.4981 78.9445 67.6295L79.2823 67.667H79.6935C79.8843 67.667 80.0954 67.6576 80.3362 67.6295C80.5755 67.606 80.8491 67.5841 81.1587 67.5607C81.4214 67.5138 81.7185 67.4637 82.0516 67.4121C82.3862 67.3699 82.7443 67.3074 83.1243 67.237C83.4809 67.1651 83.828 67.0931 84.1642 67.0212C84.4926 66.9493 84.8163 66.8648 85.1275 66.7726C85.4152 66.6772 85.6951 66.5896 85.9687 66.5067C86.2408 66.4207 86.4973 66.33 86.7365 66.2362C86.9742 66.1393 87.1994 66.0376 87.4167 65.9297C87.6279 65.8265 87.8311 65.7233 88.0235 65.6279C88.2127 65.5122 88.3878 65.3887 88.5426 65.2683C88.699 65.1494 88.8476 65.029 88.9899 64.9117L89.1509 64.7522C89.3823 64.4645 89.7999 63.8422 89.7764 63.4637V63.3793C89.7764 63.1635 89.7279 62.9649 89.6325 62.7866C89.5372 62.6084 89.4074 62.4317 89.24 62.2722C89.0727 62.1236 88.8569 61.9845 88.5974 61.8375C88.3347 61.6999 88.036 61.5779 87.7013 61.4794C87.3432 61.3605 86.9508 61.2683 86.5239 61.1979C86.0923 61.1228 85.6278 61.0634 85.1275 61.0165C84.6005 60.9712 84.0407 60.9242 83.448 60.8914C82.8491 60.8539 82.2064 60.8367 81.5137 60.8367L79.6544 60.7976C79.5121 60.821 79.3855 60.8429 79.2791 60.8539L78.9414 60.9086L78.6849 60.9821L78.5082 61.0869L78.3691 61.2667L78.3347 61.3386L78.2971 61.409L78.2596 61.6576V61.9845L78.1877 65.8093V66.6303L78.1908 66.6287ZM78.3706 55.5404V55.8844L78.405 56.1502L78.5489 56.366L78.7287 56.5443L78.907 56.6694L79.1556 56.7945L79.4605 56.8508L79.8014 56.868C79.9453 56.868 80.1126 56.8617 80.3003 56.8508C80.4926 56.8382 80.7068 56.821 80.9461 56.7945C81.1603 56.7444 81.4105 56.7069 81.6982 56.6694C81.9813 56.6303 82.3049 56.5787 82.6599 56.5083C82.8257 56.4583 82.9883 56.4192 83.1462 56.3832C83.2995 56.3488 83.4605 56.3144 83.6278 56.2941C83.7952 56.2472 83.9719 56.2034 84.147 56.1674C84.3268 56.133 84.5082 56.0892 84.7037 56.0423L84.9336 55.9907C85.4699 55.9031 85.9734 55.6905 86.4926 55.5404L86.7412 55.4715C87.0743 55.3746 87.3839 55.273 87.6701 55.1651C87.9578 55.0587 88.2314 54.9586 88.4941 54.8648C88.7569 54.7429 88.993 54.624 89.2088 54.5036C89.4214 54.3879 89.6138 54.2659 89.7811 54.1455C89.9484 54.0267 90.0907 53.8969 90.208 53.7515C90.3284 53.6092 90.4332 53.4684 90.5317 53.3214C90.6286 53.1791 90.7006 53.0368 90.7459 52.8977C90.7944 52.7491 90.8194 52.5943 90.8194 52.427C90.8194 52.1893 90.7647 51.9657 90.6568 51.7499C90.5504 51.5341 90.4019 51.3183 90.2096 51.1056C89.9953 50.8914 89.742 50.6975 89.4418 50.5146C89.1431 50.3363 88.7928 50.1612 88.3847 49.997C88.0078 49.8515 87.5794 49.7233 87.1149 49.6045C86.6521 49.4856 86.1454 49.3887 85.5981 49.3183C85.0712 49.2464 84.5114 49.1885 83.9156 49.1385C83.3229 49.0884 82.7006 49.0665 82.0579 49.0665C81.6748 49.0665 81.3261 49.0744 81.0024 49.0838C80.6802 49.0978 80.3878 49.1291 80.1267 49.1713C79.8655 49.1979 79.6497 49.2448 79.484 49.3167C79.3182 49.3871 79.1963 49.4606 79.1275 49.5278C79.0305 49.6013 78.9523 49.7139 78.8945 49.8703C78.8319 50.022 78.7803 50.2315 78.7334 50.4958C78.6849 50.7319 78.638 51.0243 78.5911 51.373C78.5411 51.7186 78.5145 52.0923 78.5145 52.4958L78.3753 55.3949V55.5357L78.3706 55.5404Z" fill="white"/>
<path fill-rule="evenodd" clip-rule="evenodd" d="M102.475 52.9336C102.475 52.5004 102.46 52.061 102.441 51.606C102.417 51.1588 102.378 50.7037 102.331 50.2471C102.285 49.7967 102.233 49.3355 102.172 48.8726C102.114 48.4097 102.036 47.9359 101.94 47.459L101.923 47.3714L101.905 47.2776L101.85 47.1353L101.836 46.9914L101.797 46.8663V46.7772C101.797 46.6146 101.826 46.4535 101.889 46.3112C101.944 46.1674 102.059 46.0501 102.228 45.9531C102.391 45.8343 102.585 45.7358 102.797 45.6482C103.012 45.5653 103.262 45.4918 103.548 45.4168C103.861 45.348 104.211 45.2823 104.604 45.2197C104.996 45.1619 105.431 45.1165 105.909 45.0946C106.388 45.0477 106.923 45.0149 107.518 45.0039C108.116 44.9899 108.758 44.9899 109.451 44.9899C111.073 44.9899 112.597 45.0555 114.027 45.2025C115.46 45.348 116.816 45.5481 118.106 45.8108C119.392 46.097 120.583 46.4488 121.682 46.8663C122.78 47.2807 123.804 47.7639 124.757 48.3128C125.687 48.8648 126.505 49.4637 127.212 50.122C127.911 50.7741 128.505 51.4856 128.98 52.2487C129.454 52.9852 129.808 53.7874 130.034 54.6474C130.264 55.5028 130.375 56.4097 130.375 57.3652C130.375 58.4379 130.274 59.459 130.073 60.4175C129.87 61.3839 129.564 62.3003 129.162 63.1603C128.73 64.0172 128.205 64.8304 127.587 65.5903C126.965 66.3534 126.25 67.0555 125.437 67.7014C124.627 68.3441 123.743 68.9039 122.79 69.3871C121.836 69.8593 120.821 70.2518 119.75 70.563C118.677 70.8992 117.542 71.14 116.338 71.2964C115.129 71.4512 113.859 71.5309 112.524 71.5309C112.095 71.5309 111.645 71.5168 111.166 71.4981C110.69 71.4668 110.177 71.4355 109.628 71.3824C109.105 71.3605 108.557 71.3136 107.984 71.2416C107.41 71.1713 106.816 71.0978 106.195 71.029C106.028 71.0055 105.881 70.9883 105.75 70.9742L105.371 70.9195C104.899 70.8695 104.494 70.7522 104.031 70.7819H103.833C103.689 70.7569 103.561 70.7365 103.442 70.7225L103.118 70.7037C102.037 70.4645 102.214 70.5348 102.349 69.545L102.366 69.3871C102.414 69.2166 102.444 69.0493 102.457 68.8788C102.469 68.7162 102.472 68.5458 102.472 68.38V52.932L102.475 52.9336ZM109.628 63.9484V64.0047C109.651 64.7303 109.756 65.4527 109.737 66.183V67.0399C109.737 67.2213 109.747 67.3808 109.775 67.5262C109.822 67.6654 109.867 67.7921 109.917 67.9015L110.059 68.1658L110.255 68.3613L110.524 68.527C110.643 68.5489 110.777 68.5755 110.918 68.5974C111.06 68.6208 111.215 68.6318 111.382 68.6318C112.219 68.6318 113.021 68.5661 113.797 68.4332C114.572 68.3003 115.306 68.097 115.998 67.8108C116.688 67.5247 117.374 67.1713 118.053 66.7538C118.735 66.3362 119.373 65.853 119.97 65.3073C120.564 64.7584 121.08 64.1736 121.521 63.5544C121.964 62.9351 122.338 62.269 122.65 61.5512C122.962 60.8616 123.191 60.1251 123.348 59.3464C123.503 58.5739 123.582 57.7592 123.582 56.9007C123.582 56.208 123.526 55.5716 123.42 54.9867C123.313 54.4019 123.162 53.8499 122.971 53.3214C122.758 52.8194 122.502 52.3534 122.205 51.9125C121.901 51.4715 121.553 51.0712 121.148 50.7147C120.766 50.3769 120.32 50.0767 119.808 49.7999C119.293 49.5231 118.74 49.3057 118.142 49.14C117.546 48.9508 116.904 48.81 116.209 48.7287C115.521 48.6459 114.788 48.6005 114.027 48.6005C113.647 48.6005 113.299 48.6099 112.993 48.6224C112.682 48.6365 112.396 48.6677 112.133 48.71C111.872 48.7334 111.628 48.7756 111.398 48.8351C111.173 48.8976 110.977 48.9617 110.811 49.0337C110.643 49.1056 110.496 49.1916 110.364 49.2839L110.059 49.6075C109.966 49.7061 109.903 49.8233 109.88 49.9656C109.858 50.1095 109.842 50.2487 109.842 50.391L109.825 50.4832L109.809 50.6443L109.792 50.8945L109.775 51.2166V52.1111C109.748 52.2768 109.737 52.4613 109.737 52.6662V53.2901C109.714 53.7436 109.689 54.1908 109.665 54.6318C109.64 55.0727 109.628 55.5059 109.628 55.9375V63.9484Z" fill="white"/>
<path fill-rule="evenodd" clip-rule="evenodd" d="M135.381 46.5302L135.473 46.2596C135.529 46.1783 135.643 46.1002 135.812 46.0282C135.931 45.9563 136.097 45.8906 136.311 45.8296C136.527 45.7718 136.765 45.7202 137.027 45.6717C137.29 45.6217 137.606 45.5904 137.975 45.5607C138.342 45.5388 138.766 45.5153 139.246 45.495C139.722 45.47 140.247 45.4481 140.818 45.4387C141.388 45.4293 142.008 45.4199 142.677 45.4199H143.537L143.894 45.4575H144.213C144.428 45.4762 144.61 45.4966 144.75 45.5122C144.894 45.5247 145.004 45.5419 145.071 45.5622L145.306 45.6905L145.465 45.889L145.482 45.9579L145.501 46.0689L145.553 46.2456L145.57 46.4942C145.57 46.8992 145.615 47.3355 145.695 47.7999C145.781 48.2643 145.917 48.7507 146.109 49.2495C146.297 49.7468 146.541 50.2753 146.844 50.8195C147.138 51.3683 147.482 51.9547 147.859 52.5755L154.156 62.5192L154.194 62.5912C154.336 62.7835 154.549 62.8273 154.78 62.807L154.907 62.7694L154.979 62.7319L155.034 62.7131L155.051 62.6631L155.143 62.5724L155.157 62.4833L155.176 62.4113L155.195 62.341L155.21 62.2722L155.229 62.194L155.445 46.563L155.481 46.2284L155.586 45.9219L155.822 45.6733C155.926 45.6013 156.052 45.5403 156.197 45.4966C156.317 45.4418 156.466 45.4168 156.643 45.4059C156.821 45.3902 157.034 45.373 157.27 45.3527C157.484 45.3261 157.733 45.3073 158.02 45.298C158.306 45.2855 158.629 45.2808 158.987 45.2808H159.991C160.13 45.3042 160.272 45.312 160.417 45.312H160.81C161.024 45.312 161.209 45.3199 161.363 45.3339C161.517 45.3433 161.632 45.3636 161.703 45.3871L161.936 45.4762L162.095 45.6029C162.311 45.864 162.233 46.2346 162.2 46.5317V46.8883L162.15 46.9618L162.133 47.0337V47.8202L161.812 52.4692C161.739 53.1353 161.679 53.7671 161.632 54.3644C161.582 54.9618 161.537 55.5341 161.489 56.0783C161.442 56.6068 161.406 57.1181 161.382 57.6216C161.359 58.1189 161.345 58.5833 161.345 59.0118C161.321 59.4434 161.299 59.8672 161.273 60.2847C161.249 60.7022 161.24 61.115 161.24 61.5184C161.215 61.9235 161.199 62.3191 161.187 62.7147C161.171 63.1119 161.168 63.4981 161.168 63.8797V69.6029C161.168 69.7467 161.143 69.8687 161.094 69.9766L160.915 70.2112C160.821 70.2831 160.704 70.3472 160.56 70.4082C160.417 70.4645 160.249 70.5067 160.056 70.5349C159.867 70.5771 159.636 70.6099 159.362 70.6224C159.087 70.6318 158.78 70.6521 158.447 70.6725C158.092 70.6959 157.697 70.7178 157.27 70.7272C156.84 70.7413 156.375 70.7507 155.875 70.7507H155.337L155.068 70.7084H154.836C154.669 70.7084 154.511 70.7037 154.355 70.6912C154.198 70.6819 154.061 70.6662 153.945 70.6428L153.729 70.624C153.285 70.5427 152.847 70.527 152.441 70.3879L140.854 53.7577L141.102 69.1369C141.102 69.2808 141.095 69.4074 141.069 69.5138L140.96 69.7827C140.666 70.3597 140.173 70.0704 139.601 70.1408H139.226C139.093 70.1408 138.946 70.1502 138.777 70.1783H136.811C136.668 70.1518 136.538 70.1408 136.417 70.1408H135.168L134.935 70.0908L134.769 69.9625L134.666 69.7843L134.627 69.5341V69.4997L134.666 69.4262V68.391L135.379 46.5396L135.381 46.5302Z" fill="white"/>
<path fill-rule="evenodd" clip-rule="evenodd" d="M162.255 79.0211H158.741V79.0899C158.741 79.5637 158.876 79.9453 159.148 80.2361C159.42 80.527 159.773 80.6724 160.211 80.6724C160.507 80.6724 160.776 80.5926 161.013 80.4331C161.254 80.2721 161.467 80.0313 161.648 79.7107L162.225 80.0954C162.003 80.4973 161.719 80.7975 161.371 80.9992C161.026 81.2025 160.626 81.3041 160.169 81.3041C159.495 81.3041 158.948 81.0821 158.53 80.6396C158.114 80.1939 157.905 79.6122 157.905 78.8898C157.905 78.1673 158.113 77.631 158.527 77.1884C158.941 76.7475 159.472 76.527 160.122 76.527C160.773 76.527 161.296 76.7349 161.681 77.1556C162.061 77.5731 162.255 78.147 162.255 78.8694V79.0195V79.0211ZM161.44 78.4097C161.414 78.0188 161.285 77.717 161.049 77.5074C160.816 77.2948 160.496 77.19 160.089 77.19C159.72 77.19 159.411 77.301 159.167 77.5199C158.92 77.742 158.777 78.0375 158.741 78.4081H161.442L161.44 78.4097ZM156.746 73.6294V81.1181H156.011V80.3159C155.834 80.6349 155.609 80.8788 155.331 81.0508C155.052 81.2197 154.741 81.3057 154.4 81.3057C153.762 81.3057 153.249 81.0884 152.862 80.6521C152.472 80.2174 152.278 79.6372 152.278 78.921C152.278 78.2048 152.469 77.6185 152.851 77.1853C153.231 76.7553 153.741 76.5395 154.374 76.5395C154.741 76.5395 155.062 76.6208 155.332 76.7881C155.604 76.9539 155.823 77.1994 155.991 77.5278V73.6294H156.748H156.746ZM156.013 78.9304C156.013 78.4363 155.875 78.0391 155.598 77.7389C155.325 77.4371 154.963 77.2885 154.511 77.2885C154.06 77.2885 153.712 77.4245 153.462 77.6982C153.207 77.9719 153.084 78.3503 153.084 78.8335C153.084 79.3776 153.21 79.803 153.465 80.111C153.722 80.4206 154.074 80.5739 154.522 80.5739C154.971 80.5739 155.354 80.4285 155.617 80.1392C155.88 79.8499 156.014 79.4449 156.014 78.932L156.013 78.9304ZM150.377 78.2783C150.377 78.7568 150.288 79.2072 150.111 79.631C149.934 80.0547 149.673 80.4316 149.336 80.76C148.995 81.0899 148.605 81.3432 148.161 81.5215C147.717 81.7013 147.259 81.7905 146.785 81.7905C146.311 81.7905 145.855 81.7013 145.412 81.5215C144.974 81.3432 144.585 81.0899 144.244 80.76C143.9 80.4269 143.642 80.05 143.462 79.6247C143.281 79.2025 143.192 78.7521 143.192 78.2783C143.192 77.8045 143.281 77.3479 143.462 76.921C143.642 76.4957 143.9 76.1157 144.244 75.7842C144.58 75.4574 144.971 75.2072 145.411 75.0305C145.852 74.8538 146.311 74.7631 146.785 74.7631C147.259 74.7631 147.722 74.8522 148.166 75.0305C148.608 75.2072 148.999 75.4574 149.336 75.7842C149.673 76.1126 149.934 76.491 150.111 76.9163C150.288 77.3417 150.377 77.7952 150.377 78.2783ZM146.785 81.0414C147.153 81.0414 147.503 80.9726 147.836 80.8335C148.169 80.6959 148.466 80.491 148.733 80.2267C148.996 79.9672 149.196 79.6669 149.334 79.3339C149.472 79.0008 149.54 78.6489 149.54 78.2783C149.54 77.9077 149.472 77.5481 149.332 77.2072C149.195 76.8694 148.993 76.5708 148.733 76.3112C148.469 76.0485 148.172 75.8499 147.839 75.7123C147.504 75.5747 147.154 75.5059 146.784 75.5059C146.413 75.5059 146.056 75.5731 145.722 75.7123C145.387 75.8499 145.092 76.0485 144.835 76.3112C144.571 76.577 144.371 76.8772 144.233 77.2134C144.095 77.5481 144.027 77.903 144.027 78.2783C144.027 78.6536 144.095 78.9992 144.23 79.3292C144.366 79.6575 144.568 79.9593 144.835 80.2252C145.103 80.491 145.403 80.6959 145.733 80.8335C146.063 80.9711 146.411 81.0399 146.782 81.0399L146.785 81.0414ZM139.253 75.5887V77.8296H139.861C140.486 77.8296 140.905 77.7498 141.117 77.5887C141.328 77.4292 141.432 77.1509 141.432 76.7506C141.432 76.3206 141.325 76.0203 141.106 75.8468C140.888 75.6763 140.474 75.5887 139.859 75.5887H139.251H139.253ZM138.471 81.6122V74.9163H140.049C140.499 74.9163 140.83 74.9414 141.04 74.9914C141.249 75.0414 141.434 75.129 141.592 75.2494C141.792 75.4042 141.945 75.6122 142.056 75.8733C142.167 76.136 142.222 76.4238 142.222 76.7396C142.222 77.2885 142.069 77.706 141.759 77.9891C141.451 78.2768 141.001 78.4191 140.408 78.4191H140.264L142.834 81.6106H141.817L139.367 78.4191H139.253V81.6106H138.471V81.6122ZM136.045 74.9163H136.846V81.6122H136.045V74.9163ZM131.14 81.6122V74.9163H134.685V75.645H131.941V77.5637H134.685V78.3065H131.941V80.8726H134.685V81.6122H131.14ZM126.854 81.6122V74.9163H127.653V80.8538H130.191V81.6122H126.854ZM124.429 74.9163H125.228V81.6122H124.429V74.9163ZM122.031 77.8937C122.469 78.0782 122.799 78.3253 123.023 78.6349C123.245 78.9445 123.356 79.3073 123.356 79.7263C123.356 80.3425 123.16 80.8382 122.768 81.215C122.374 81.5919 121.853 81.7811 121.203 81.7811C120.674 81.7811 120.232 81.6466 119.872 81.3761C119.515 81.1071 119.273 80.7209 119.149 80.2252L119.872 79.8671C119.972 80.2736 120.133 80.5801 120.357 80.7881C120.582 80.9961 120.865 81.1009 121.204 81.1009C121.606 81.1009 121.93 80.9867 122.178 80.7568C122.425 80.5254 122.549 80.2267 122.549 79.8577C122.549 79.5606 122.463 79.2995 122.291 79.0774C122.116 78.8554 121.856 78.6708 121.508 78.5176L120.691 78.1704C120.244 77.9844 119.909 77.7451 119.692 77.4511C119.473 77.1603 119.364 76.81 119.364 76.4019C119.364 75.9249 119.54 75.5324 119.895 75.2228C120.249 74.9116 120.702 74.7568 121.254 74.7568C121.658 74.7568 122.008 74.8428 122.302 75.0117C122.599 75.1822 122.829 75.4355 122.995 75.767L122.333 76.1876C122.183 75.9296 122.014 75.7373 121.828 75.6106C121.642 75.484 121.429 75.4199 121.195 75.4199C120.895 75.4199 120.651 75.5106 120.458 75.6935C120.267 75.8765 120.172 76.1095 120.172 76.3925C120.172 76.6286 120.246 76.835 120.394 77.0086C120.54 77.1837 120.768 77.337 121.076 77.4715L122.034 77.8937H122.031ZM115.836 74.6521L118.895 81.6122H118.025L117.153 79.559H114.527L113.656 81.6122H112.787L115.834 74.6521H115.836ZM115.836 76.4128L114.768 78.8772H116.907L115.836 76.4128ZM109.461 75.5887V77.8296H110.07C110.694 77.8296 111.115 77.7498 111.325 77.5887C111.536 77.4292 111.64 77.1509 111.64 76.7506C111.64 76.3206 111.534 76.0203 111.314 75.8468C111.096 75.6763 110.682 75.5887 110.07 75.5887H109.461ZM108.682 81.6122V74.9163H110.258C110.712 74.9163 111.04 74.9414 111.25 74.9914C111.459 75.0414 111.644 75.129 111.801 75.2494C112.002 75.4042 112.156 75.6122 112.266 75.8733C112.377 76.136 112.432 76.4238 112.432 76.7396C112.432 77.2885 112.278 77.706 111.97 77.9891C111.664 78.2768 111.21 78.4191 110.618 78.4191H110.475L113.043 81.6106H112.028L109.575 78.4191H109.461V81.6106H108.682V81.6122ZM104.178 75.6059V77.8483H104.798C105.367 77.8483 105.767 77.7654 105.999 77.6013C106.232 77.4355 106.349 77.1572 106.349 76.7678C106.349 76.3378 106.242 76.0375 106.024 75.8655C105.809 75.6904 105.4 75.6059 104.798 75.6059H104.178ZM104.178 78.4754V80.9195H104.798C105.223 80.9195 105.531 80.9023 105.717 80.8694C105.906 80.835 106.055 80.7772 106.171 80.6943C106.308 80.5973 106.418 80.4613 106.497 80.2877C106.577 80.1126 106.616 79.9202 106.616 79.7107C106.616 79.4683 106.569 79.2541 106.474 79.0758C106.379 78.896 106.242 78.7553 106.06 78.6536C105.953 78.5895 105.828 78.5442 105.687 78.5176C105.545 78.491 105.328 78.4769 105.031 78.4769H104.177L104.178 78.4754ZM103.396 81.6122V74.9163H104.798C105.29 74.9163 105.653 74.9414 105.886 74.9914C106.122 75.0414 106.321 75.129 106.491 75.2494C106.704 75.4073 106.871 75.6122 106.988 75.8593C107.107 76.1079 107.165 76.38 107.165 76.6755C107.165 77.0289 107.082 77.3245 106.912 77.5622C106.741 77.8014 106.494 77.9672 106.169 78.061C106.568 78.1235 106.88 78.3002 107.113 78.5942C107.343 78.8866 107.459 79.2604 107.459 79.7076C107.459 79.9765 107.411 80.233 107.31 80.4754C107.214 80.7209 107.077 80.9288 106.901 81.104C106.712 81.2901 106.479 81.4199 106.199 81.4965C105.92 81.5747 105.454 81.6106 104.794 81.6106H103.393L103.396 81.6122ZM99.3199 78.2783C99.3199 78.7568 99.2307 79.2072 99.0525 79.631C98.8758 80.0547 98.6162 80.4316 98.2769 80.76C97.936 81.0899 97.5466 81.3432 97.1025 81.5215C96.6584 81.7013 96.2002 81.7905 95.7264 81.7905C95.2526 81.7905 94.796 81.7013 94.3535 81.5215C93.9156 81.3432 93.5263 81.0899 93.1854 80.76C92.8414 80.4269 92.5834 80.05 92.4035 79.6247C92.2237 79.2025 92.133 78.7521 92.133 78.2783C92.133 77.8045 92.2221 77.3479 92.4035 76.921C92.5818 76.4957 92.8414 76.1157 93.1854 75.7842C93.5216 75.4574 93.9125 75.2072 94.3519 75.0305C94.7929 74.8538 95.2526 74.7631 95.7264 74.7631C96.2002 74.7631 96.6631 74.8522 97.1056 75.0305C97.5497 75.2072 97.9391 75.4574 98.2753 75.7842C98.6131 76.1126 98.8742 76.491 99.0509 76.9163C99.2276 77.3417 99.3183 77.7952 99.3183 78.2783H99.3199ZM95.728 81.0414C96.0955 81.0414 96.4458 80.9726 96.7788 80.8335C97.1088 80.6959 97.409 80.491 97.6748 80.2267C97.9391 79.9672 98.1393 79.6669 98.2769 79.3339C98.4145 79.0008 98.4833 78.6489 98.4833 78.2783C98.4833 77.9077 98.4145 77.5481 98.2753 77.2072C98.1361 76.8694 97.9344 76.5708 97.6748 76.3112C97.4121 76.0485 97.115 75.8499 96.7819 75.7123C96.4473 75.5747 96.097 75.5059 95.7264 75.5059C95.3558 75.5059 94.9993 75.5731 94.6647 75.7123C94.33 75.8499 94.0345 76.0485 93.778 76.3112C93.5138 76.577 93.3136 76.8772 93.176 77.2134C93.0384 77.5481 92.9696 77.903 92.9696 78.2783C92.9696 78.6536 93.0384 78.9992 93.1729 79.3292C93.3089 79.6575 93.5106 79.9593 93.778 80.2252C94.0454 80.4941 94.3457 80.6959 94.6756 80.8335C95.0056 80.9711 95.3543 81.0399 95.7249 81.0399L95.728 81.0414ZM89.8359 81.6122V75.6763H87.9375V74.9163H92.5364V75.6763H90.6459V81.6122H89.8375H89.8359ZM81.8656 74.9163H82.6741V79.0821C82.6741 79.7608 82.8179 80.2565 83.1072 80.5723C83.3949 80.8898 83.85 81.0493 84.4676 81.0493C85.0853 81.0493 85.5388 80.8898 85.8265 80.5723C86.1174 80.2565 86.2612 79.7592 86.2612 79.0821V74.9163H87.0744V79.0821C87.0744 79.9891 86.8586 80.6661 86.4254 81.1165C85.9923 81.5653 85.3402 81.7905 84.4676 81.7905C83.5951 81.7905 82.9477 81.5653 82.5146 81.1165C82.0814 80.6661 81.8656 79.9891 81.8656 79.0821V74.9163ZM78.3034 81.6122V75.6763H76.4035V74.9163H81.004V75.6763H79.1135V81.6122H78.305H78.3034ZM74.7038 74.9163H75.5028V81.6122H74.7038V74.9163ZM71.1041 81.6122V75.6763H69.2026V74.9163H73.8031V75.6763H71.9125V81.6122H71.1041ZM67.5435 77.8937C67.9813 78.0782 68.3113 78.3253 68.5333 78.6349C68.7554 78.9445 68.8664 79.3073 68.8664 79.7263C68.8664 80.3425 68.6694 80.8382 68.2769 81.215C67.8844 81.5919 67.3621 81.7811 66.7147 81.7811C66.1846 81.7811 65.7405 81.6466 65.3824 81.3761C65.0259 81.1071 64.7835 80.7209 64.66 80.2252L65.3824 79.8671C65.4809 80.2736 65.642 80.5801 65.8687 80.7881C66.0939 80.9961 66.3769 81.1009 66.7163 81.1009C67.1166 81.1009 67.4418 80.9867 67.6889 80.7568C67.9375 80.5254 68.0595 80.2267 68.0595 79.8577C68.0595 79.5606 67.9735 79.2995 67.8015 79.0774C67.6279 78.8554 67.3683 78.6708 67.0181 78.5176L66.2018 78.1704C65.7577 77.9844 65.4231 77.7451 65.2042 77.4511C64.9852 77.1603 64.8742 76.81 64.8742 76.4019C64.8742 75.9249 65.054 75.5324 65.409 75.2228C65.7624 74.9116 66.2159 74.7568 66.7663 74.7568C67.1713 74.7568 67.52 74.8428 67.8156 75.0117C68.1111 75.1822 68.3425 75.4355 68.5052 75.767L67.8437 76.1876C67.6936 75.9296 67.5247 75.7373 67.3386 75.6106C67.1541 75.484 66.943 75.4199 66.7069 75.4199C66.4067 75.4199 66.1612 75.5106 65.9704 75.6935C65.7796 75.8765 65.6827 76.1095 65.6827 76.3925C65.6827 76.6286 65.7561 76.835 65.9047 77.0086C66.0501 77.1837 66.28 77.337 66.5896 77.4715L67.5482 77.8937H67.5435ZM57.814 81.6122V74.6521L62.7288 80.0031V74.9163H63.4903V81.8733L58.5755 76.5801V81.6122H57.814ZM55.3887 74.9163H56.1877V81.6122H55.3887V74.9163Z" fill="white"/>
<path fill-rule="evenodd" clip-rule="evenodd" d="M158.721 83.9469L162.464 92.4942H161.401L160.335 89.9735H157.121L156.053 92.4942H154.991L158.719 83.9469H158.721ZM158.721 86.1095L157.415 89.1353H160.031L158.721 86.1095ZM148.568 92.4942L153.19 85.1666H149.437V84.2721H154.848L150.269 91.5622H154.661V92.4926H148.568V92.4942ZM143.62 92.4942V84.2737H147.956V85.1681H144.597V87.5262H147.956V88.4363H144.597V91.5872H147.956V92.4973H143.62V92.4942ZM138.419 85.0993V87.8499H139.163C139.93 87.8499 140.439 87.753 140.701 87.5559C140.959 87.3605 141.087 87.0165 141.087 86.5254C141.087 85.9985 140.954 85.6279 140.688 85.4152C140.419 85.2025 139.912 85.0978 139.162 85.0978H138.418L138.419 85.0993ZM137.464 92.4942V84.2737H139.393C139.945 84.2737 140.347 84.305 140.604 84.3644C140.86 84.4285 141.088 84.5333 141.281 84.6834C141.526 84.8742 141.714 85.1306 141.848 85.4512C141.984 85.7702 142.052 86.1251 142.052 86.5145C142.052 87.1869 141.862 87.6998 141.487 88.0501C141.112 88.4019 140.558 88.5739 139.833 88.5739H139.658L142.801 92.4942H141.557L138.558 88.5739H138.419V92.4942H137.465H137.464ZM129.145 84.2737H130.135V89.3886C130.135 90.2205 130.31 90.8288 130.666 91.2197C131.018 91.6091 131.573 91.803 132.33 91.803C133.087 91.803 133.642 91.6091 133.994 91.2197C134.35 90.8288 134.525 90.2205 134.525 89.3886V84.2737H135.52V89.3886C135.52 90.502 135.256 91.3339 134.726 91.8859C134.197 92.4379 133.4 92.7131 132.332 92.7131C131.264 92.7131 130.472 92.4363 129.944 91.8859C129.412 91.3339 129.149 90.502 129.149 89.3886V84.2737H129.145ZM124.787 92.4942V85.2041H122.46V84.2737H128.089V85.2041H125.776V92.4942H124.787ZM120.078 83.9469L123.822 92.4942H122.758L121.69 89.9735H118.477L117.411 92.4942H116.349L120.077 83.9469H120.078ZM120.078 86.1095L118.772 89.1353H121.389L120.078 86.1095ZM108.566 92.4942V83.9469L114.582 90.5176V84.2721H115.515V92.8147L109.5 86.3143V92.4926H108.566V92.4942ZM90.1454 83.8624L93.8734 92.3785H92.8163L91.753 89.8671H88.5489L87.4871 92.3785H86.4285L90.1454 83.8624ZM90.1454 86.0188L88.8429 89.0352H91.4496L90.1454 86.0188ZM84.6443 87.8296C85.1775 88.0563 85.5794 88.3613 85.8515 88.735C86.1204 89.1134 86.2565 89.5591 86.2565 90.072C86.2565 90.8257 86.0172 91.434 85.5387 91.8953C85.0587 92.3566 84.4238 92.588 83.6325 92.588C82.9867 92.588 82.4457 92.4222 82.0078 92.0923C81.5731 91.7623 81.2791 91.2917 81.1259 90.6849L82.0078 90.2471C82.1282 90.7428 82.3268 91.1197 82.5989 91.3746C82.8757 91.6294 83.2166 91.7577 83.6325 91.7577C84.1204 91.7577 84.5176 91.6154 84.8178 91.3355C85.1196 91.0524 85.2713 90.6881 85.2713 90.2346C85.2713 89.8687 85.1666 89.5497 84.957 89.2807C84.7459 89.0102 84.4285 88.7835 84.0016 88.5958L83.0071 88.1689C82.4629 87.9422 82.0563 87.6498 81.7905 87.2901C81.5246 86.932 81.3902 86.5036 81.3902 86.0047C81.3902 85.4215 81.606 84.9398 82.0391 84.5614C82.4707 84.1799 83.0227 83.9891 83.6951 83.9891C84.1892 83.9891 84.6146 84.0939 84.9742 84.3018C85.3339 84.5098 85.6153 84.821 85.8155 85.2276L85.0086 85.7405C84.8272 85.423 84.6224 85.1885 84.3941 85.0352C84.1673 84.8788 83.9078 84.8022 83.6216 84.8022C83.2557 84.8022 82.957 84.9148 82.724 85.1384C82.491 85.362 82.3738 85.6466 82.3738 85.9938C82.3738 86.2831 82.4629 86.5364 82.6443 86.7475C82.821 86.9617 83.1009 87.1494 83.4762 87.3136L84.6458 87.828L84.6443 87.8296ZM75.6904 92.38V84.1877H80.011V85.0774H76.6646V87.4277H80.011V88.3347H76.6646V91.4731H80.011V92.3785H75.6904V92.38ZM69.8827 92.38V84.1877H74.2033V85.0774H70.8569V87.4277H74.2033V88.3347H70.8569V92.38H69.8827ZM63.9109 92.38V84.1877H68.2315V85.0774H64.8867V87.4277H68.2315V88.3347H64.8867V91.4731H68.2315V92.3785H63.9109V92.38ZM55.5997 92.38V84.1877H57.1744C58.3378 84.1877 59.1572 84.2487 59.6325 84.3644C60.1095 84.4832 60.527 84.6787 60.8851 84.9539C61.3526 85.3167 61.7107 85.7795 61.9531 86.3441C62.1955 86.9086 62.3159 87.5559 62.3159 88.2893C62.3159 89.0227 62.1955 89.6701 61.9547 90.2315C61.7139 90.7913 61.3558 91.2541 60.8835 91.6154C60.5254 91.8906 60.1173 92.0876 59.6607 92.2064C59.2041 92.3237 58.491 92.3816 57.5247 92.3816H55.5981L55.5997 92.38ZM56.5849 91.4637H57.2072C58.2158 91.4637 58.9117 91.4183 59.301 91.3308C59.6904 91.2432 60.0125 91.0946 60.269 90.8804C60.6052 90.6005 60.8601 90.2409 61.0352 89.7983C61.2119 89.3573 61.2995 88.8507 61.2995 88.2784C61.2995 87.7061 61.2135 87.1994 61.0383 86.7647C60.8648 86.3315 60.6083 85.9719 60.269 85.6873C60.0125 85.4715 59.6857 85.3183 59.2885 85.226C58.8913 85.1337 58.1986 85.0884 57.2088 85.0884H56.5864V91.4637H56.5849ZM105.564 88.0751V92.4942H104.832V91.692C104.655 92.0157 104.427 92.2612 104.152 92.4285C103.878 92.5989 103.568 92.6834 103.226 92.6834C102.593 92.6834 102.081 92.466 101.692 92.0282C101.306 91.5935 101.11 91.0149 101.11 90.2987C101.11 89.5825 101.299 88.993 101.676 88.5614C102.052 88.1314 102.557 87.9187 103.188 87.9187C103.557 87.9187 103.878 88 104.15 88.1674C104.422 88.3331 104.644 88.5786 104.812 88.907V88.0751H105.564ZM104.83 90.3269C104.83 89.828 104.693 89.4246 104.421 89.1212C104.149 88.8163 103.795 88.6646 103.356 88.6646C102.916 88.6646 102.549 88.8038 102.294 89.0853C102.039 89.3652 101.911 89.7561 101.911 90.2596C101.911 90.7944 102.039 91.2057 102.296 91.4934C102.55 91.7842 102.915 91.9281 103.385 91.9281C103.856 91.9281 104.191 91.7874 104.444 91.5059C104.701 91.2244 104.829 90.8288 104.829 90.3269H104.83ZM99.9078 85.0071V92.4942H99.1728V91.6935C98.9977 92.0125 98.7741 92.2549 98.4957 92.4285C98.2205 92.5974 97.9093 92.6834 97.5684 92.6834C96.9336 92.6834 96.4222 92.466 96.0344 92.0282C95.6482 91.5935 95.4511 91.0149 95.4511 90.2987C95.4511 89.5825 95.6419 88.9946 96.0235 88.563C96.4019 88.133 96.9101 87.9172 97.5387 87.9172C97.9062 87.9172 98.2252 87.9985 98.4957 88.1658C98.7662 88.3315 98.9852 88.577 99.1525 88.9054V85.0071H99.9062H99.9078ZM99.1728 90.3081C99.1728 89.814 99.0368 89.4183 98.7616 89.1165C98.4879 88.8147 98.1267 88.6662 97.6795 88.6662C97.2322 88.6662 96.882 88.8022 96.6318 89.0759C96.3784 89.3495 96.2549 89.728 96.2549 90.2111C96.2549 90.7553 96.3816 91.1806 96.6365 91.4887C96.8913 91.7983 97.2432 91.9516 97.6904 91.9516C98.1376 91.9516 98.5176 91.8061 98.7788 91.5168C99.0415 91.2276 99.1728 90.8226 99.1728 90.3097V90.3081Z" fill="white"/>
</g>
<defs>
<clipPath id="clip0_16_98">
<rect width="162.464" height="94" fill="white"/>
</clipPath>
</defs>
</svg>
